<svg data-v-423bf9ae="" xmlns="http://www.w3.org/2000/svg" viewBox="0 0 210.8537725214317 60" class="font"><!----><!----><defs data-v-423bf9ae=""><linearGradient data-v-423bf9ae="" gradientTransform="rotate(25)" id="533bde0a-7f77-495d-b9cd-93a2a9f53dac" x1="0%" y1="0%" x2="100%" y2="0%"><stop data-v-423bf9ae="" offset="0%" style="stop-color: rgb(57, 94, 202); stop-opacity: 1;"></stop><stop data-v-423bf9ae="" offset="100%" style="stop-color: rgb(132, 139, 216); stop-opacity: 1;"></stop></linearGradient></defs><g data-v-423bf9ae="" id="fbc109ef-a390-4eb3-a8f8-7a01f7f6bc62" fill="url(#533bde0a-7f77-495d-b9cd-93a2a9f53dac)" transform="matrix(5.888125896453857,0,0,5.888125896453857,-4.121699810028076,-23.081451416015625)"><path d="M4.07 12.74L4.07 12.74Q4.59 12.73 4.98 12.52L4.98 12.52L4.98 12.52Q5.36 12.32 5.60 11.97L5.60 11.97L5.60 11.97Q5.67 11.86 5.78 11.86L5.78 11.86L5.78 11.86Q5.85 11.86 5.91 11.90L5.91 11.90L6.58 12.43L6.58 12.43Q6.68 12.53 6.68 12.61L6.68 12.61L6.68 12.61Q6.68 12.67 6.64 12.74L6.64 12.74L6.64 12.74Q6.23 13.38 5.53 13.75L5.53 13.75L5.53 13.75Q4.83 14.11 3.92 14.11L3.92 14.11L3.92 14.11Q2.81 14.11 2.06 13.59L2.06 13.59L2.06 13.59Q1.32 13.06 0.98 12.12L0.98 12.12L0.98 12.12Q0.70 11.35 0.70 10.39L0.70 10.39L0.70 10.39Q0.70 9.42 0.85 8.90L0.85 8.90L0.85 8.90Q1.12 7.91 1.90 7.32L1.90 7.32L1.90 7.32Q2.69 6.73 3.81 6.73L3.81 6.73L3.81 6.73Q6.43 6.73 6.87 9.60L6.87 9.60L6.87 9.60Q6.94 10.07 6.97 10.75L6.97 10.75L6.97 10.75Q6.97 10.98 6.75 10.98L6.75 10.98L2.41 10.98L2.41 10.98Q2.32 10.98 2.32 11.06L2.32 11.06L2.32 11.06Q2.32 11.44 2.41 11.68L2.41 11.68L2.41 11.68Q2.56 12.18 3.00 12.46L3.00 12.46L3.00 12.46Q3.43 12.74 4.07 12.74L4.07 12.74ZM3.79 8.13L3.79 8.13Q3.26 8.13 2.92 8.39L2.92 8.39L2.92 8.39Q2.58 8.65 2.45 9.11L2.45 9.11L2.45 9.11Q2.35 9.39 2.34 9.70L2.34 9.70L2.34 9.70Q2.32 9.79 2.41 9.79L2.41 9.79L5.22 9.79L5.22 9.79Q5.31 9.79 5.31 9.70L5.31 9.70L5.31 9.70Q5.25 9.28 5.22 9.20L5.22 9.20L5.22 9.20Q5.10 8.71 4.73 8.42L4.73 8.42L4.73 8.42Q4.35 8.13 3.79 8.13L3.79 8.13ZM12.80 4.42L12.80 4.42Q12.80 4.20 13.02 4.20L13.02 4.20L14.20 4.20L14.20 4.20Q14.42 4.20 14.42 4.42L14.42 4.42L14.42 13.78L14.42 13.78Q14.42 14 14.20 14L14.20 14L13.02 14L13.02 14Q12.80 14 12.80 13.78L12.80 13.78L12.80 13.41L12.80 13.41Q12.80 13.36 12.76 13.34L12.76 13.34L12.76 13.34Q12.73 13.33 12.70 13.38L12.70 13.38L12.70 13.38Q12.10 14.11 11.10 14.11L11.10 14.11L11.10 14.11Q10.12 14.11 9.42 13.59L9.42 13.59L9.42 13.59Q8.72 13.06 8.41 12.15L8.41 12.15L8.41 12.15Q8.16 11.37 8.16 10.40L8.16 10.40L8.16 10.40Q8.16 9.41 8.40 8.69L8.40 8.69L8.40 8.69Q8.71 7.77 9.39 7.25L9.39 7.25L9.39 7.25Q10.08 6.73 11.10 6.73L11.10 6.73L11.10 6.73Q12.08 6.73 12.70 7.42L12.70 7.42L12.70 7.42Q12.73 7.46 12.76 7.46L12.76 7.46L12.76 7.46Q12.80 7.45 12.80 7.39L12.80 7.39L12.80 4.42ZM12.45 12.04L12.45 12.04Q12.77 11.49 12.77 10.42L12.77 10.42L12.77 10.42Q12.77 9.32 12.42 8.75L12.42 8.75L12.42 8.75Q12.04 8.13 11.37 8.13L11.37 8.13L11.37 8.13Q10.64 8.13 10.25 8.72L10.25 8.72L10.25 8.72Q9.84 9.34 9.84 10.43L9.84 10.43L9.84 10.43Q9.84 11.44 10.18 12.03L10.18 12.03L10.18 12.03Q10.54 12.70 11.35 12.70L11.35 12.70L11.35 12.70Q12.05 12.70 12.45 12.04L12.45 12.04ZM20.51 4.42L20.51 4.42Q20.51 4.20 20.73 4.20L20.73 4.20L21.91 4.20L21.91 4.20Q22.13 4.20 22.13 4.42L22.13 4.42L22.13 13.78L22.13 13.78Q22.13 14 21.91 14L21.91 14L20.73 14L20.73 14Q20.51 14 20.51 13.78L20.51 13.78L20.51 13.41L20.51 13.41Q20.51 13.36 20.48 13.34L20.48 13.34L20.48 13.34Q20.44 13.33 20.41 13.38L20.41 13.38L20.41 13.38Q19.81 14.11 18.82 14.11L18.82 14.11L18.82 14.11Q17.84 14.11 17.14 13.59L17.14 13.59L17.14 13.59Q16.44 13.06 16.13 12.15L16.13 12.15L16.13 12.15Q15.88 11.37 15.88 10.40L15.88 10.40L15.88 10.40Q15.88 9.41 16.11 8.69L16.11 8.69L16.11 8.69Q16.42 7.77 17.11 7.25L17.11 7.25L17.11 7.25Q17.79 6.73 18.82 6.73L18.82 6.73L18.82 6.73Q19.80 6.73 20.41 7.42L20.41 7.42L20.41 7.42Q20.44 7.46 20.48 7.46L20.48 7.46L20.48 7.46Q20.51 7.45 20.51 7.39L20.51 7.39L20.51 4.42ZM20.16 12.04L20.16 12.04Q20.48 11.49 20.48 10.42L20.48 10.42L20.48 10.42Q20.48 9.32 20.13 8.75L20.13 8.75L20.13 8.75Q19.75 8.13 19.08 8.13L19.08 8.13L19.08 8.13Q18.35 8.13 17.96 8.72L17.96 8.72L17.96 8.72Q17.56 9.34 17.56 10.43L17.56 10.43L17.56 10.43Q17.56 11.44 17.89 12.03L17.89 12.03L17.89 12.03Q18.26 12.70 19.07 12.70L19.07 12.70L19.07 12.70Q19.77 12.70 20.16 12.04L20.16 12.04ZM27.22 6.76L27.22 6.76Q27.62 6.76 27.96 6.92L27.96 6.92L27.96 6.92Q28.13 7 28.08 7.20L28.08 7.20L27.86 8.36L27.86 8.36Q27.85 8.47 27.78 8.50L27.78 8.50L27.78 8.50Q27.72 8.53 27.59 8.50L27.59 8.50L27.59 8.50Q27.43 8.44 27.15 8.44L27.15 8.44L27.15 8.44Q26.98 8.44 26.88 8.46L26.88 8.46L26.88 8.46Q26.29 8.48 25.90 8.87L25.90 8.87L25.90 8.87Q25.51 9.25 25.51 9.87L25.51 9.87L25.51 13.78L25.51 13.78Q25.51 14 25.28 14L25.28 14L24.11 14L24.11 14Q23.88 14 23.88 13.78L23.88 13.78L23.88 7.07L23.88 7.07Q23.88 6.85 24.11 6.85L24.11 6.85L25.28 6.85L25.28 6.85Q25.51 6.85 25.51 7.07L25.51 7.07L25.51 7.62L25.51 7.62Q25.51 7.67 25.54 7.69L25.54 7.69L25.54 7.69Q25.56 7.70 25.59 7.64L25.59 7.64L25.59 7.64Q26.18 6.76 27.22 6.76L27.22 6.76ZM30.07 5.95L30.07 5.95Q29.61 5.95 29.32 5.66L29.32 5.66L29.32 5.66Q29.02 5.38 29.02 4.93L29.02 4.93L29.02 4.93Q29.02 4.48 29.32 4.20L29.32 4.20L29.32 4.20Q29.61 3.92 30.07 3.92L30.07 3.92L30.07 3.92Q30.53 3.92 30.82 4.20L30.82 4.20L30.82 4.20Q31.11 4.48 31.11 4.93L31.11 4.93L31.11 4.93Q31.11 5.38 30.82 5.66L30.82 5.66L30.82 5.66Q30.53 5.95 30.07 5.95L30.07 5.95ZM29.48 14L29.48 14Q29.26 14 29.26 13.78L29.26 13.78L29.26 7.07L29.26 7.07Q29.26 6.85 29.48 6.85L29.48 6.85L30.66 6.85L30.66 6.85Q30.88 6.85 30.88 7.07L30.88 7.07L30.88 13.78L30.88 13.78Q30.88 14 30.66 14L30.66 14L29.48 14ZM36.51 7.94L36.51 7.94Q36.51 8.16 36.29 8.16L36.29 8.16L34.93 8.16L34.93 8.16Q34.85 8.16 34.85 8.25L34.85 8.25L34.85 11.55L34.85 11.55Q34.85 12.10 35.08 12.33L35.08 12.33L35.08 12.33Q35.31 12.57 35.81 12.57L35.81 12.57L36.18 12.57L36.18 12.57Q36.40 12.57 36.40 12.80L36.40 12.80L36.40 13.73L36.40 13.73Q36.40 13.96 36.18 13.97L36.18 13.97L35.50 13.99L35.50 13.99Q34.40 13.99 33.85 13.60L33.85 13.60L33.85 13.60Q33.31 13.22 33.29 12.17L33.29 12.17L33.29 8.25L33.29 8.25Q33.29 8.16 33.21 8.16L33.21 8.16L32.48 8.16L32.48 8.16Q32.26 8.16 32.26 7.94L32.26 7.94L32.26 7.07L32.26 7.07Q32.26 6.85 32.48 6.85L32.48 6.85L33.21 6.85L33.21 6.85Q33.29 6.85 33.29 6.76L33.29 6.76L33.29 5.19L33.29 5.19Q33.29 4.97 33.52 4.97L33.52 4.97L34.62 4.97L34.62 4.97Q34.85 4.97 34.85 5.19L34.85 5.19L34.85 6.76L34.85 6.76Q34.85 6.85 34.93 6.85L34.93 6.85L36.29 6.85L36.29 6.85Q36.51 6.85 36.51 7.07L36.51 7.07L36.51 7.94Z"></path></g><!----><!----></svg>